PathFileType	4	(X/Y/Z)	s04c0403.trc
DataRate	CameraRate	NumFrames	NumMarkers	Units	OrigDataRate	OrigDataStartFrame	OrigNumFrames
200	200	4	50	mm	200	1750	2000
Frame#	Time	racr			lacr			c7			jug			rlel			rdr			llel			ldr			s2			lic			ric			lasi			rasi			rpsi			lpsi			rgt			lgt			rth1			rth2			rth3			rth4			rlfc			rmfc			rsh1			rsh2			rsh3			rsh4			rlmal			rmmal			rcal			rtoe			rmt5			lth1			lth2			lth4			lth3			llfc			lmfc			lsh1			lsh2			lsh3			lsh4			llmal			lmmal			lcal			ltoe			lmt5			SBIKE			LBIKE			RBIKE			
		X1	Y1	Z1	X2	Y2	Z2	X3	Y3	Z3	X4	Y4	Z4	X5	Y5	Z5	X6	Y6	Z6	X7	Y7	Z7	X8	Y8	Z8	X9	Y9	Z9	X10	Y10	Z10	X11	Y11	Z11	X12	Y12	Z12	X13	Y13	Z13	X14	Y14	Z14	X15	Y15	Z15	X16	Y16	Z16	X17	Y17	Z17	X18	Y18	Z18	X19	Y19	Z19	X20	Y20	Z20	X21	Y21	Z21	X22	Y22	Z22	X23	Y23	Z23	X24	Y24	Z24	X25	Y25	Z25	X26	Y26	Z26	X27	Y27	Z27	X28	Y28	Z28	X29	Y29	Z29	X30	Y30	Z30	X31	Y31	Z31	X32	Y32	Z32	X33	Y33	Z33	X34	Y34	Z34	X35	Y35	Z35	X36	Y36	Z36	X37	Y37	Z37	X38	Y38	Z38	X39	Y39	Z39	X40	Y40	Z40	X41	Y41	Z41	X42	Y42	Z42	X43	Y43	Z43	X44	Y44	Z44	X45	Y45	Z45	X46	Y46	Z46	X47	Y47	Z47	X48	Y48	Z48	X49	Y49	Z49	X50	Y50	Z50	
1750	8.7500	857.287357	1269.320061	-168.036870	874.218112	1188.491797	-490.651847	907.536246	1306.138279	-343.568772	829.538325	1175.573493	-321.066126	609.974950	1175.831923	27.205202	706.946156	939.810239	-76.036852	595.821717	1146.836404	-613.159911	688.111253	935.878816	-503.131951	300.117324	1283.869123	-274.994278	419.970752	1263.403580	-450.575931	470.895371	1223.584139	-136.286828	453.033718	1204.519251	-417.965154	480.444500	1166.779717	-183.431995	351.070630	1309.084423	-234.333406	339.593011	1323.921294	-307.113555	394.458882	1177.620622	-115.567347	381.406590	1192.149925	-479.496647	398.296241	1016.077716	-89.695525	410.001280	928.947342	-98.745948	380.513438	848.640568	-101.018253	442.208317	927.120131	-118.098435	363.846094	702.476114	-128.318216	335.850715	689.605162	-240.518371	285.726706	606.715960	-99.483552	255.390347	521.862711	-113.803881	187.961280	468.219447	-118.790611	283.482701	506.517501	-135.928190	112.664870	334.321604	-121.416515	135.462024	330.166042	-205.115981	48.460539	353.487468	-157.004570	253.907979	130.338907	-167.243098	192.388824	158.961278	-108.356924	431.429191	1117.334722	-482.440117	506.545315	1073.641665	-482.552088	531.482944	1098.151095	-471.523292	551.101197	996.800486	-484.908023	642.162028	868.320869	-462.694128	661.960138	839.425153	-347.404644	568.177030	783.511255	-482.626539	515.859683	715.665776	-464.089402	434.137287	679.651551	-462.945029	534.540652	696.427880	-435.949289	314.193144	590.553189	-456.383493	0.000000	0.000000	-0.000000	232.397603	619.756189	-418.457021	462.776115	423.610067	-411.582487	387.428564	438.173714	-477.255258	-184.740361	930.529516	-286.924540	-17.595650	79.242587	-485.364062	-17.499361	79.479582	-84.723118	
1751	8.7550	855.775893	1269.912878	-168.024748	872.911424	1186.210209	-490.283076	907.604503	1305.853037	-344.809156	828.326465	1176.101174	-322.069815	608.599111	1175.899413	26.470793	706.468428	939.899412	-76.331902	594.454339	1146.380839	-611.639497	687.718022	936.070881	-503.114977	300.308575	1285.643540	-277.077719	420.515718	1262.501311	-451.545245	470.187159	1226.676214	-136.767223	452.498595	1203.497233	-418.165175	480.238590	1168.126914	-183.367275	351.559398	1310.874441	-237.241411	340.128904	1324.862234	-310.438726	394.373895	1180.572485	-115.856562	381.287943	1192.312743	-480.088609	400.911212	1017.838795	-89.599308	414.539384	931.164842	-99.190787	386.975779	850.088200	-101.443052	446.748815	930.149893	-118.627732	371.676331	703.861379	-127.762901	343.650076	691.410446	-239.893367	290.342205	609.763867	-99.157556	257.598917	525.900476	-113.787204	188.498518	474.368936	-119.274732	284.872028	509.679464	-136.482220	108.639309	342.842668	-122.652356	132.128264	337.794653	-206.244331	45.035902	363.127128	-159.722320	245.077622	134.748746	-165.539285	183.665174	165.634787	-107.911921	429.966591	1116.720540	-482.926400	504.548218	1072.241208	-482.735835	529.735654	1096.634192	-472.153498	548.190830	994.899336	-484.592535	638.933193	865.463024	-461.924765	659.147640	836.912314	-346.945677	566.439254	778.780147	-482.190411	515.268739	709.929076	-463.749994	434.346628	672.391267	-462.625247	534.226516	690.986799	-435.491724	315.813851	582.008752	-456.423927	0.000000	0.000000	-0.000000	232.891802	607.856294	-418.577188	471.209333	421.451687	-412.060472	395.112632	432.793689	-477.484831	-184.705411	930.542345	-287.066823	-17.586594	79.264573	-485.373151	-17.478894	79.526170	-84.737448	
1752	8.7600	854.261065	1270.654572	-167.729996	871.681442	1184.180931	-489.915058	907.576036	1305.327331	-344.769680	826.672027	1176.617708	-321.824363	607.230043	1175.853786	25.989850	706.066664	939.982214	-76.552733	593.137584	1146.056974	-610.200619	687.489983	936.321425	-503.321065	300.423308	1287.320858	-279.317108	421.042483	1261.507002	-452.577034	469.390711	1229.803182	-137.204313	452.008389	1202.510732	-418.312028	480.007296	1169.519356	-183.305715	351.927440	1312.769981	-240.476324	339.819685	1327.323780	-311.494066	394.174092	1183.509331	-116.190646	381.130697	1192.138601	-480.630271	403.676072	1019.790229	-89.709806	419.425983	933.576914	-99.667506	393.689289	851.809312	-101.904955	451.669518	933.438941	-118.834474	380.259569	705.579482	-127.202217	352.156107	693.394075	-239.062684	295.456347	613.082626	-98.775010	261.360456	530.620669	-113.399760	189.531753	480.962092	-119.720714	287.048314	513.378307	-136.520892	105.126589	351.765088	-123.891242	129.468988	345.863658	-207.524989	41.368348	372.561073	-163.953362	236.743840	139.455629	-163.324483	174.939397	172.483494	-107.593519	428.281181	1115.460075	-483.228093	502.300089	1070.166506	-482.878560	527.724863	1094.508156	-472.748116	544.937519	992.247941	-484.223424	634.397526	861.675062	-461.781493	655.769149	833.517033	-346.566863	564.284081	772.485912	-482.327886	514.184133	703.175685	-463.327705	433.926905	664.280451	-462.270284	533.439790	684.690834	-434.803584	317.130539	572.845154	-456.586664	0.000000	0.000000	-0.000000	232.935295	595.188524	-418.294393	478.820110	418.794412	-412.379231	402.269903	426.911613	-477.788582	-184.683649	930.536875	-287.203701	-17.594182	79.244224	-485.387242	-17.505638	79.558914	-84.749823	
1753	8.7650	852.718987	1271.619749	-167.061732	870.519472	1182.537311	-489.544256	907.485678	1304.934356	-344.333689	824.925302	1177.321981	-321.150026	606.022538	1175.719621	25.703008	705.702951	940.067596	-76.611265	592.039142	1145.818251	-608.981008	688.430499	937.511793	-504.944255	300.615212	1288.907429	-281.774717	421.725430	1260.249456	-453.657515	468.357712	1232.890685	-137.760378	451.696637	1201.329393	-418.459799	479.754292	1170.938685	-183.250806	351.857329	1314.494159	-243.128184	339.591416	1328.148697	-314.635525	393.846735	1186.530966	-116.599911	380.946772	1191.507732	-481.131774	406.629041	1021.852554	-90.326242	424.597656	936.015115	-100.215275	401.101272	853.738334	-102.168291	456.671152	936.988896	-120.473394	389.475787	707.437601	-126.551974	361.154988	695.532378	-238.253546	300.915328	616.728759	-98.286532	263.194154	534.960904	-113.706442	191.034159	487.891232	-120.131891	289.650978	517.367299	-136.477789	101.866660	361.028942	-125.073995	127.612537	354.318537	-208.706642	39.083382	383.254719	-166.867919	228.671868	144.855922	-161.670501	166.643026	179.972428	-107.369057	426.483937	1113.767263	-483.447330	499.937769	1067.518979	-483.491522	525.546450	1091.679993	-473.376916	540.861955	988.680404	-484.243649	630.738206	857.005509	-460.261019	651.744942	829.323462	-346.287220	561.875086	765.017118	-482.523410	512.764346	695.409980	-462.645000	433.292155	655.017144	-461.626465	532.253283	677.602407	-433.796562	317.896120	562.406757	-456.308099	0.000000	0.000000	-0.000000	233.099817	581.559122	-418.057922	485.807648	415.303321	-412.699087	408.902276	420.439806	-478.034871	-184.662386	930.540236	-287.324165	-17.586748	79.220502	-485.394101	-17.481233	79.574655	-84.733536	
